<?xml version="1.0" encoding="utf-8"?>
<!-- Generator: Adobe Illustrator 26.0.1, SVG Export Plug-In . SVG Version: 6.00 Build 0)  -->
<svg version="1.1" id="Layer_1" xmlns="http://www.w3.org/2000/svg" xmlns:xlink="http://www.w3.org/1999/xlink" x="0px" y="0px"
	 viewBox="0 0 357.4 355.4" style="enable-background:new 0 0 357.4 355.4;" xml:space="preserve">
<style type="text/css">
	.st0{fill:none;stroke:#000000;stroke-width:9;stroke-miterlimit:10;}
</style>
<circle class="st0" cx="177.9" cy="175.8" r="163.4"/>
<g>
	<g>
		<path d="M168.9,143.4h69.1c3.2,0,5.2-0.4,6-1.2c1.1-1.1,1.6-4,1.6-8.6V87.9c0-4.8-1.1-8-3.3-9.5c-1.2-1-4.5-2-9.8-3.2
			c-4.4-1-6.5-2.5-6.5-4.6c0-2.4,0.4-3.9,1.2-4.5c0.8-0.6,2.8-0.8,6.1-0.4c8.6,1,17.5,1.2,26.6,0.7c6.5-0.4,13-0.7,19.5-1.2
			c2.2,0,3.6,0.2,4.1,0.7c0.6,0.4,0.9,1.9,0.9,4.2c0,2.3-1.7,3.7-5,4.1c-8.6,1.1-12.8,5.7-12.8,13.8v130.6c0,4.3,1.4,7.5,4.1,9.5
			c2.2,1.6,6.2,3.1,12.1,4.6c3.3,0.8,5,2.1,5,4c0,2.3-0.3,3.7-0.8,4.2c-0.5,0.5-1.9,0.7-4.3,0.4c-15.3-1.5-30.6-1.9-46.1-1.1
			c-3,0.2-5,0-5.8-0.6c-0.8-0.6-1.2-1.9-1.2-4c0-2.8,2.1-4.6,6.2-5.2c6.5-1,9.8-4.9,9.8-11.9v-52.1c0-3.8-0.4-6.3-1.2-7.6
			c-0.8-1.3-2.6-1.9-5.5-1.9h-70.3"/>
	</g>
	<g>
		<path d="M218.7,267.3c0.1,1.9-1.6,2.8-5.1,2.8c-31.2,0-60.6-25.2-88.3-75.6c-10.7,0.5-16.4,0.7-17.1,0.7v51.6c0,3.9,1,6.4,3,7.7
			c2,1.3,6.4,2.4,13.3,3.4c4.8,0.7,7.2,2.3,7.2,4.8c0,2.1-0.4,3.3-1.2,3.8s-3,0.7-6.5,0.5c-15.7-0.7-32.9-0.3-51.4,1
			c-3.7,0.2-5.6-1.2-5.6-4.3c0-2.1,1.9-3.4,5.6-3.7c8.5-0.8,12.8-5.2,12.8-13.2V129.1c0-7.8-4.8-12.6-14.5-14.4
			c-4.8-0.9-7.2-2.3-7.2-4.3c0-3,1.6-4.5,4.8-4.5c1,0,2,0.1,3.1,0.2c3.6,0.5,9,0.7,16.3,0.7c2.4,0,8.5-0.1,18.4-0.4
			c9.8-0.2,18.9-0.4,27.3-0.4c17.4,0,31.1,3.1,41.1,9.2c11.3,6.8,16.9,16.8,16.9,30.1c0,22.7-13.9,37.7-41.7,45
			c8.9,19,19.3,35.3,31.3,48.9c12.2,13.9,23.3,21.6,33.1,23.1C217.1,262.9,218.6,264.5,218.7,267.3z M166.4,148.4
			c0-12.1-3.3-20.8-9.9-25.9c-6.6-5.2-17.1-7.7-31.6-7.7c-6.5,0-10.9,0.8-13.2,2.5c-2.3,1.7-3.4,5.3-3.4,10.9V186
			c21-0.7,36.1-4.1,45.3-10.5C162.1,169.8,166.4,160.7,166.4,148.4z"/>
	</g>
</g>
<g>
</g>
<g>
</g>
<g>
</g>
<g>
</g>
<g>
</g>
<g>
</g>
</svg>
